<svg width="24" height="24" viewBox="0 0 24 24" fill="none" xmlns="http://www.w3.org/2000/svg">
<path d="M12.144 15.808H13.472C13.424 15.28 13.424 14.192 13.424 13.072C14.624 13.072 15.952 13.088 16.336 13.12V11.904V10.704C15.952 10.736 14.624 10.752 13.424 10.752C13.424 9.632 13.424 8.528 13.472 8C13.024 8.016 12.608 8.016 12.144 8.016C11.68 8.016 11.248 8.016 10.832 8C10.864 8.528 10.88 9.632 10.896 10.752C9.712 10.752 8.432 10.736 8 10.704C8.016 11.088 8.016 11.456 8.016 11.904C8.016 12.336 8.016 12.704 8 13.12C8.432 13.088 9.712 13.072 10.896 13.072C10.88 14.192 10.864 15.28 10.832 15.808H12.144Z" fill="black"/>
</svg>
