<svg width="24" height="25" viewBox="0 0 24 25" fill="none" xmlns="http://www.w3.org/2000/svg">
<path d="M16.9149 2.38284C16.9149 2.44317 16.9149 2.50349 16.9149 2.56382V6.00235C16.9149 6.24365 16.7064 6.45479 16.4681 6.45479C16.2298 6.45479 16.0213 6.24365 16.0213 6.00235V2.53365C16.0213 1.26683 14.4128 0.150813 12.4468 0V7.20885C12.4468 7.45015 12.2383 7.66129 12 7.66129C11.7617 7.66129 11.5532 7.45015 11.5532 7.20885V0.0301625C9.58723 0.150813 7.97872 1.26683 7.97872 2.56382L7.97872 6.03251C7.97872 6.27381 7.77021 6.48495 7.53191 6.48495C7.29362 6.48495 7.08511 6.27381 7.08511 6.03251L7.08511 2.56382C7.08511 2.50349 7.08511 2.44317 7.08511 2.38284C5.77447 3.16707 5 4.19259 5 5.27845L5 24.0244L19 24.0244L19 5.27845C19 4.19259 18.2553 3.13691 16.9149 2.38284Z" fill="#010101"/>
</svg>
