<svg width="156.579" height="158" viewBox="0 0 156.579 158" fill="black" xmlns="http://www.w3.org/2000/svg">
<path d="M76.596,7.504l3.161-7.132c0.12-0.266,0.315-0.386,0.597-0.371l0.767,0.039c0.283,0.015,0.465,0.154,0.557,0.43
		l2.462,7.416c0.113,0.348-0.053,0.577-0.418,0.558l-0.566-0.029c-0.294-0.015-0.477-0.154-0.569-0.43l-0.398-1.238l-3.56-0.18
		l-0.521,1.191C78,8.024,77.805,8.144,77.522,8.13l-0.566-0.028C76.591,8.083,76.449,7.84,76.596,7.504z M81.886,5.491l-1.221-3.902
		l-1.608,3.76L81.886,5.491z M95.933,2.718l-0.063,0.3c-0.065,0.312-0.288,0.458-0.6,0.393l-3.327-0.694L91.48,4.935l2.842,0.593
		c0.312,0.065,0.46,0.277,0.395,0.589L94.67,6.347c-0.066,0.312-0.289,0.458-0.601,0.393l-2.841-0.593l-0.603,2.888
		C90.56,9.348,90.35,9.485,90.039,9.42l-0.555-0.116c-0.312-0.065-0.449-0.274-0.384-0.586l1.485-7.116
		c0.065-0.312,0.274-0.449,0.586-0.384l4.367,0.911C95.85,2.194,95.999,2.406,95.933,2.718z M96.772,6.63
		c0.746-2.213,3.115-3.444,5.473-2.649c2.347,0.791,3.488,3.205,2.743,5.418c-0.746,2.213-3.115,3.444-5.463,2.652
		C97.166,11.257,96.025,8.843,96.772,6.63z M103.49,8.894c0.52-1.542-0.206-3.119-1.682-3.616c-1.487-0.501-3.018,0.314-3.538,1.857
		c-0.52,1.543,0.206,3.12,1.692,3.62C101.437,11.252,102.97,10.437,103.49,8.894z M105.451,13.586l3.217-6.519
		c0.141-0.285,0.378-0.366,0.663-0.225l0.276,0.136c0.232,0.115,0.371,0.288,0.414,0.547l1.115,6.275l2.188-4.434
		c0.141-0.286,0.379-0.366,0.664-0.225l0.508,0.251c0.285,0.141,0.377,0.383,0.236,0.669l-3.217,6.519
		c-0.141,0.285-0.388,0.361-0.675,0.22l-0.264-0.13c-0.233-0.115-0.36-0.283-0.415-0.547l-1.109-6.311l-2.204,4.466
		c-0.141,0.286-0.379,0.366-0.664,0.225l-0.508-0.25C105.391,14.109,105.31,13.872,105.451,13.586z M113.539,17.736l4.002-6.067
		c0.176-0.266,0.421-0.316,0.687-0.141l2.088,1.377c2.147,1.416,2.516,3.878,1.261,5.779c-1.253,1.901-3.662,2.531-5.809,1.115
		l-2.088-1.377C113.414,18.247,113.363,18.002,113.539,17.736z M116.41,18.654c1.418,0.936,2.97,0.489,3.847-0.84
		c0.877-1.33,0.683-2.942-0.742-3.867l-1.123-0.741l-3.105,4.707L116.41,18.654z M129.853,20.804l-0.197,0.236
		c-0.204,0.245-0.47,0.269-0.714,0.064l-2.609-2.178l-1.452,1.739l2.229,1.86c0.245,0.204,0.276,0.461,0.072,0.706l-0.152,0.181
		c-0.204,0.245-0.47,0.269-0.715,0.064l-2.229-1.86l-1.891,2.265c-0.204,0.245-0.453,0.267-0.698,0.063l-0.435-0.363
		c-0.245-0.204-0.267-0.453-0.063-0.698l4.659-5.58c0.204-0.245,0.453-0.267,0.698-0.063l3.424,2.858
		C130.026,20.302,130.057,20.56,129.853,20.804z M128.748,24.642c1.698-1.604,4.367-1.579,6.077,0.23
		c1.702,1.8,1.576,4.467-0.121,6.072c-1.698,1.605-4.367,1.579-6.069-0.222C126.925,28.913,127.05,26.246,128.748,24.642z
		 M133.618,29.795c1.183-1.118,1.283-2.851,0.213-3.983c-1.078-1.14-2.814-1.139-3.996-0.021c-1.183,1.118-1.283,2.851-0.205,3.992
		C130.698,30.914,132.435,30.913,133.618,29.795z M133.133,34.893l5.819-4.352c0.255-0.191,0.503-0.155,0.693,0.1l0.34,0.453
		c0.191,0.255,0.155,0.503-0.1,0.694l-5.167,3.864l1.949,2.608c0.191,0.255,0.153,0.519-0.102,0.71l-0.246,0.184
		c-0.255,0.191-0.51,0.145-0.7-0.109l-2.586-3.458C132.842,35.331,132.877,35.083,133.133,34.893z M137.141,40.494l6.135-3.908
		c0.269-0.171,0.513-0.117,0.684,0.152l0.305,0.478c0.171,0.269,0.117,0.514-0.152,0.685l-6.134,3.908
		c-0.269,0.171-0.513,0.117-0.684-0.152l-0.305-0.478C136.819,40.91,136.873,40.665,137.141,40.494z M142.279,41.677
		c2.081-1.058,4.635-0.28,5.763,1.939c1.122,2.208,0.248,4.73-1.833,5.788c-2.081,1.059-4.635,0.28-5.758-1.928
		C139.324,45.257,140.198,42.735,142.279,41.677z M145.493,47.995c1.45-0.738,2.035-2.372,1.33-3.76
		c-0.711-1.398-2.376-1.888-3.827-1.15c-1.45,0.738-2.035,2.372-1.324,3.77C142.377,48.243,144.042,48.733,145.493,47.995z
		 M151.444,60.255c-1.376,0.426-2.775-0.142-3.267-1.731l-0.58-1.872l-2.346,0.726c-0.304,0.094-0.526-0.023-0.62-0.327
		l-0.168-0.541c-0.094-0.304,0.022-0.526,0.327-0.62l6.946-2.15c0.304-0.094,0.526,0.023,0.62,0.327l0.894,2.886
		C153.746,58.554,152.83,59.826,151.444,60.255z M150.984,58.73c0.767-0.238,1.172-0.882,0.939-1.638l-0.503-1.624l-2.628,0.813
		l0.503,1.624C149.533,58.672,150.228,58.964,150.984,58.73z M150.019,65.797l-0.254-1.345l-2.481,0.469
		c-0.313,0.059-0.519-0.082-0.578-0.395l-0.105-0.557c-0.059-0.313,0.082-0.52,0.395-0.579l7.141-1.348
		c0.313-0.059,0.519,0.082,0.579,0.395l0.577,3.061c0.313,1.658-0.717,2.813-2.144,3.082c-1.206,0.227-2.295-0.263-2.783-1.384
		c-0.842,0.243-1.815,0.943-1.666,1.731c0.043,0.232,0.111,0.399,0.221,0.535c0.17,0.268,0.155,0.439-0.098,0.631l-0.146,0.112
		c-0.254,0.18-0.491,0.201-0.69-0.026c-0.302-0.327-0.491-0.76-0.577-1.212C147.04,66.996,149.096,66.055,150.019,65.797z
		 M151.259,66.007c0.146,0.777,0.807,1.156,1.583,1.01c0.788-0.148,1.262-0.754,1.118-1.519l-0.335-1.774l-2.701,0.51
		L151.259,66.007z M152.06,70.982c2.331-0.14,4.361,1.593,4.51,4.077c0.148,2.472-1.659,4.436-3.991,4.576
		c-2.331,0.14-4.361-1.593-4.51-4.066C147.921,73.085,149.729,71.121,152.06,70.982z M152.485,78.058
		c1.625-0.098,2.814-1.363,2.72-2.917c-0.094-1.566-1.425-2.679-3.049-2.582c-1.625,0.098-2.813,1.362-2.719,2.928
		C149.529,77.041,150.86,78.155,152.485,78.058z M151.209,81.067c0.212,0.013,0.562,0.083,0.849,0.219
		c0.253,0.11,0.346,0.317,0.329,0.588l-0.029,0.459c-0.022,0.353-0.219,0.471-0.543,0.367c-0.231-0.086-0.43-0.122-0.548-0.129
		c-0.871-0.055-1.748,0.362-1.823,1.539c-0.077,1.213,0.777,1.905,2.32,2.003l4.073,0.259c0.318,0.02,0.483,0.22,0.463,0.538
		l-0.035,0.553c-0.02,0.318-0.208,0.484-0.526,0.463l-4.073-0.259c-2.508-0.159-3.725-1.478-3.588-3.62
		C148.224,81.716,149.82,80.979,151.209,81.067z M154.304,92.34l-2.234-0.383l-0.487,2.839c-0.054,0.314-0.261,0.47-0.574,0.417
		l-0.233-0.04c-0.314-0.054-0.468-0.272-0.414-0.586l0.487-2.839l-2.106-0.361l-0.573,3.339c-0.053,0.314-0.269,0.457-0.583,0.403
		l-0.303-0.052c-0.314-0.054-0.458-0.258-0.404-0.572l0.752-4.387c0.053-0.314,0.258-0.459,0.573-0.405l7.166,1.229
		c0.315,0.054,0.459,0.258,0.405,0.572l-0.752,4.387c-0.054,0.314-0.258,0.458-0.573,0.405l-0.302-0.052
		c-0.314-0.054-0.471-0.26-0.417-0.574L154.304,92.34z M150.51,97.408c2.212,0.635,3.627,2.809,2.855,5.497
		c-0.29,1.01-0.774,1.669-1.376,2.184c-0.254,0.198-0.489,0.167-0.702-0.078l-0.208-0.257c-0.213-0.245-0.173-0.467,0.067-0.705
		c0.409-0.398,0.74-0.954,0.902-1.521c0.504-1.759-0.466-3.167-1.975-3.6c-1.509-0.433-3.079,0.246-3.583,2.004
		c-0.163,0.567-0.176,1.214-0.041,1.769c0.077,0.329-0.007,0.538-0.317,0.633l-0.313,0.107c-0.309,0.095-0.511,0.025-0.607-0.236
		c-0.257-0.773-0.337-1.607-0.038-2.651C145.947,97.866,148.299,96.773,150.51,97.408z M148.867,113.215l-0.284-0.117
		c-0.295-0.121-0.402-0.357-0.281-0.651l0.799-1.943l-5.97-2.455c-0.294-0.121-0.391-0.352-0.269-0.647l0.21-0.513
		c0.121-0.295,0.353-0.391,0.647-0.27l5.97,2.455l0.794-1.932c0.121-0.295,0.363-0.387,0.658-0.266l0.284,0.117
		c0.295,0.121,0.392,0.352,0.27,0.647l-2.181,5.304C149.392,113.24,149.161,113.336,148.867,113.215z M129.863,128.782l3.004,2.854
		l0.374-0.394c0.13-0.137,0.28-0.141,0.418-0.011l0.496,0.472c0.137,0.13,0.141,0.28,0.011,0.417l-0.374,0.394l0.283,0.268
		c1.344,1.277,0.815,2.468,0.115,3.204c-0.731,0.77-1.758,1.131-2.571,0.359c-0.043-0.041-0.086-0.098-0.121-0.147
		c-0.087-0.115-0.074-0.249,0.032-0.36l0.586-0.617c0.105-0.111,0.239-0.115,0.324-0.033l0.051,0.049
		c0.163,0.154,0.437,0.105,0.632-0.1c0.261-0.274,0.21-0.598-0.106-0.899l-0.454-0.431l-0.731,0.77
		c-0.13,0.137-0.281,0.141-0.418,0.011l-0.496-0.472c-0.137-0.13-0.141-0.28-0.011-0.417l0.707-0.745l-3.005-2.854
		c-0.265-0.252-0.264-0.544-0.012-0.81l0.464-0.488C129.314,128.537,129.597,128.529,129.863,128.782z M128.92,133.39
		c1.165,1.301,1.035,3.317-0.398,4.599c-1.433,1.283-3.451,1.187-4.615-0.115c-1.165-1.302-1.035-3.317,0.398-4.6
		C125.738,131.993,127.748,132.08,128.92,133.39z M125.192,136.709c0.637,0.712,1.662,0.778,2.339,0.172
		c0.686-0.613,0.726-1.631,0.089-2.343c-0.629-0.703-1.645-0.777-2.331-0.163C124.611,134.98,124.562,136.006,125.192,136.709z
		 M121.528,136.6l2.907,3.983c0.215,0.295,0.171,0.575-0.124,0.791l-0.562,0.41c-0.295,0.215-0.575,0.172-0.792-0.124l-0.236-0.324
		c0.172,0.736-0.116,1.443-0.84,1.971c-1.315,0.96-2.542,0.278-3.384-0.875l-1.724-2.363c-0.215-0.296-0.162-0.583,0.133-0.798
		l0.553-0.403c0.295-0.215,0.575-0.172,0.791,0.124l1.648,2.259c0.501,0.686,1.059,0.891,1.565,0.523s0.744-1.142,0.076-2.057
		l-1.488-2.039c-0.215-0.295-0.172-0.575,0.123-0.791l0.563-0.41C121.032,136.26,121.312,136.304,121.528,136.6z M117.281,142.715
		c0.897,1.539,0.543,3.344-0.935,4.205c-0.683,0.398-1.449,0.49-2.171,0.118l1.39,2.386c0.184,0.316,0.102,0.596-0.215,0.781
		l-0.591,0.344c-0.316,0.184-0.59,0.112-0.774-0.204l-3.726-6.392c-0.184-0.316-0.112-0.59,0.204-0.775l0.591-0.344
		c0.316-0.184,0.6-0.118,0.785,0.198l0.143,0.245c0.039-0.801,0.496-1.422,1.179-1.821
		C114.638,140.594,116.377,141.165,117.281,142.715z M113.05,145.181c0.497,0.83,1.395,1.153,2.201,0.684
		c0.816-0.476,0.918-1.423,0.449-2.229c-0.476-0.816-1.346-1.183-2.161-0.707C112.735,143.398,112.573,144.339,113.05,145.181z
		 M108.676,144.699l1.775,3.744l0.49-0.232c0.17-0.081,0.312-0.031,0.393,0.14l0.293,0.619c0.081,0.171,0.03,0.312-0.14,0.393
		l-0.491,0.233l0.168,0.352c0.793,1.675-0.129,2.595-1.046,3.03c-0.96,0.455-2.047,0.422-2.527-0.591
		c-0.025-0.054-0.044-0.122-0.059-0.181c-0.039-0.138,0.021-0.258,0.16-0.324l0.768-0.364c0.138-0.066,0.264-0.021,0.315,0.086
		l0.03,0.064c0.097,0.203,0.37,0.256,0.626,0.134c0.341-0.162,0.411-0.482,0.224-0.877l-0.268-0.566l-0.96,0.455
		c-0.171,0.081-0.312,0.031-0.393-0.14l-0.293-0.619c-0.081-0.171-0.031-0.312,0.14-0.393l0.928-0.44l-1.775-3.744
		c-0.157-0.331-0.051-0.603,0.28-0.76l0.607-0.288C108.251,144.273,108.519,144.368,108.676,144.699z M106.131,148.666
		c0.617,1.634-0.23,3.467-2.029,4.147c-1.8,0.68-3.647-0.137-4.264-1.77s0.23-3.467,2.029-4.147
		C103.667,146.216,105.51,147.021,106.131,148.666z M101.457,150.418c0.338,0.894,1.269,1.324,2.12,1.003
		c0.862-0.325,1.265-1.26,0.927-2.154c-0.333-0.883-1.254-1.317-2.115-0.992C101.538,148.596,101.124,149.535,101.457,150.418z
		 M97.993,148.962l2.093,7.096c0.104,0.351-0.032,0.6-0.383,0.703l-0.657,0.193c-0.35,0.104-0.611-0.029-0.715-0.379l-2.093-7.095
		c-0.104-0.351,0.043-0.603,0.394-0.707l0.656-0.194C97.641,148.476,97.89,148.612,97.993,148.962z M94.853,149.856l1.181,4.788
		c0.088,0.355-0.059,0.598-0.414,0.686l-0.664,0.164c-0.355,0.088-0.61-0.056-0.698-0.411l-1.181-4.788
		c-0.088-0.355,0.071-0.601,0.426-0.688l0.665-0.164C94.522,149.354,94.765,149.5,94.853,149.856z M96.751,156.764
		c0.129,0.527-0.15,1.021-0.837,1.191c-0.675,0.167-1.164-0.138-1.294-0.665c-0.127-0.515,0.186-1.018,0.84-1.179
		C96.112,155.949,96.624,156.248,96.751,156.764z M92.551,153.013c0.293,1.722-0.889,3.36-2.785,3.682
		c-1.897,0.323-3.554-0.832-3.847-2.554c-0.293-1.722,0.889-3.36,2.785-3.683C90.601,150.136,92.256,151.279,92.551,153.013z
		 M87.627,153.839c0.16,0.942,0.994,1.543,1.889,1.39c0.908-0.155,1.483-0.995,1.323-1.937c-0.159-0.931-0.98-1.533-1.887-1.378
		C88.056,152.066,87.469,152.908,87.627,153.839z M84.756,152.058c0.056,0.587-0.37,1.09-1.016,1.152
		c-0.634,0.061-1.171-0.35-1.228-0.937c-0.056-0.587,0.396-1.069,1.03-1.13C84.189,151.081,84.701,151.471,84.756,152.058z
		 M81.787,154.482c0.054,1.77-1.26,3.24-3.396,3.305c-0.578,0.018-1.278-0.091-1.939-0.449c-0.324-0.191-0.346-0.498-0.13-0.8
		l0.181-0.242c0.216-0.29,0.451-0.309,0.799-0.166c0.395,0.177,0.773,0.189,0.939,0.184c1.027-0.031,1.749-0.75,1.719-1.742
		c-0.031-0.992-0.795-1.665-1.822-1.634c-0.166,0.005-0.543,0.04-0.926,0.241c-0.338,0.164-0.585,0.16-0.807-0.117l-0.196-0.23
		c-0.233-0.288-0.197-0.632,0.186-0.856c0.592-0.361,1.249-0.499,1.804-0.516C80.311,151.397,81.734,152.747,81.787,154.482z
		 M75.26,154.7c-0.109,1.742-1.633,3.065-3.552,2.946c-1.919-0.12-3.268-1.622-3.159-3.365c0.108-1.742,1.633-3.065,3.552-2.946
		C74.021,151.455,75.37,152.945,75.26,154.7z M70.281,154.377c-0.059,0.954,0.613,1.729,1.519,1.785
		c0.918,0.058,1.67-0.629,1.73-1.582c0.059-0.942-0.602-1.716-1.52-1.773C71.104,152.75,70.34,153.435,70.281,154.377z
		 M67.79,151.789l-0.909,4.846c-0.067,0.359-0.301,0.519-0.661,0.452l-0.683-0.129c-0.36-0.067-0.519-0.301-0.452-0.661l0.074-0.394
		c-0.36,0.64-1.072,0.915-1.814,0.776c-0.683-0.128-1.29-0.542-1.534-1.356c-0.722,0.777-1.434,0.799-2.106,0.673
		c-1.542-0.289-1.955-1.675-1.691-3.077l0.537-2.864c0.067-0.359,0.313-0.517,0.673-0.45l0.672,0.126
		c0.36,0.068,0.519,0.302,0.452,0.661l-0.522,2.782c-0.156,0.835,0.083,1.348,0.617,1.448c0.498,0.094,1.12-0.21,1.347-1.295
		l0.482-2.574c0.067-0.359,0.301-0.519,0.661-0.452l0.683,0.128c0.36,0.068,0.519,0.302,0.452,0.661l-0.521,2.783
		c-0.157,0.835,0.071,1.346,0.605,1.445c0.534,0.1,1.16-0.238,1.37-1.351l0.472-2.516c0.067-0.359,0.301-0.519,0.661-0.452
		l0.683,0.128C67.698,151.195,67.857,151.429,67.79,151.789z M98.297,67.7c5.256,0,9.532-4.276,9.532-9.532
		c0-5.244-4.312-9.511-9.612-9.511c-5.267,0-9.554,4.286-9.554,9.554l0.003,7.673H72.292c-5.358,0-9.554,4.097-9.554,9.328l0,1.546
		h-7.349c-0.502,0-0.908,0.406-0.908,0.908s0.406,0.908,0.908,0.908h7.35l0.004,13.511h-7.814c-5.256,0-9.532,4.276-9.532,9.532
		c0,5.244,4.312,9.511,9.612,9.511c5.267,0,9.554-4.286,9.554-9.554L64.559,93.9h16.374c5.089,0,9.554-4.729,9.554-10.121l0-0.693
		h7.495c0.502,0,0.908-0.406,0.908-0.908s-0.406-0.908-0.908-0.908h-7.496L90.481,67.7H98.297z M98.217,50.472
		c4.299,0,7.797,3.452,7.797,7.695c0,4.255-3.462,7.717-7.717,7.717h-7.815l-0.003-7.674C90.479,53.944,93.95,50.472,98.217,50.472z
		 M55.008,109.313c-4.299,0-7.797-3.452-7.797-7.696c0-4.255,3.462-7.717,7.717-7.717h7.815l0.003,7.674
		C62.746,105.841,59.275,109.313,55.008,109.313z M80.814,83.086h7.857l0,0.693c0,4.424-3.616,8.305-7.738,8.305H64.558
		l-0.004-13.511h8.003c0.502,0,0.908-0.406,0.908-0.908s-0.406-0.908-0.908-0.908h-8.004l0-1.546c0-4.212,3.4-7.512,7.739-7.512
		h16.374l0.004,13.571h-7.856c-0.502,0-0.908,0.406-0.908,0.908S80.313,83.086,80.814,83.086z M54.543,152.336
		c0.152-0.478-0.113-0.988-0.59-1.14C22.767,141.295,1.816,112.64,1.816,79.893c0-39.787,31.094-72.596,70.788-74.692
		c0.501-0.026,0.885-0.453,0.859-0.954c-0.027-0.5-0.455-0.884-0.955-0.859C31.849,5.535,0,39.14,0,79.893
		c0,33.542,21.461,62.892,53.403,73.034c0.091,0.029,0.184,0.043,0.275,0.043C54.064,152.969,54.421,152.722,54.543,152.336z
		 M137.123,126.887c1.412-1.815,2.759-3.717,4.003-5.654c1.363-2.123,2.636-4.341,3.784-6.593c0.228-0.447,0.051-0.993-0.396-1.221
		c-0.449-0.229-0.994-0.05-1.221,0.397c-1.121,2.198-2.364,4.364-3.695,6.436c-1.214,1.892-2.529,3.749-3.908,5.521
		c-0.308,0.396-0.237,0.966,0.159,1.274c0.166,0.129,0.363,0.191,0.557,0.191C136.676,127.237,136.944,127.117,137.123,126.887z"/>
</svg>
