<svg width="73" height="15" viewBox="0 0 73 15" fill="none" xmlns="http://www.w3.org/2000/svg">
<path d="M52.101 0C51.199 0 50.226 0.711 50.226 1.859V9.716C50.226 10.865 51.199 11.575 52.101 11.575C52.987 11.575 53.945 10.864 53.945 9.716V1.859C53.945 0.711 52.988 0 52.101 0ZM68.184 3.168C65.822 3.168 64.107 4.143 64.107 5.487C64.107 7.403 66.126 7.805 67.82 7.805H67.852C68.22 7.805 68.543 8.135 68.543 8.512V10.049C68.543 10.25 68.386 10.407 68.185 10.407C67.984 10.407 67.827 10.25 67.827 10.049V9.653C67.827 8.828 66.884 8.396 65.952 8.396C65.046 8.396 64.108 8.866 64.108 9.653V9.732C64.108 10.766 65.899 11.576 68.185 11.576C70.547 11.576 72.262 10.607 72.262 9.273C72.262 7.341 70.243 6.938 68.55 6.938H68.518C68.15 6.938 67.827 6.608 67.827 6.231V4.695C67.827 4.494 67.984 4.337 68.185 4.337C68.386 4.337 68.543 4.494 68.543 4.695V5.091C68.543 5.878 69.496 6.349 70.418 6.349C71.324 6.349 72.262 5.879 72.262 5.091V5.011C72.261 3.978 70.47 3.168 68.184 3.168ZM59.026 3.168C56.397 3.168 54.949 4.402 54.949 6.643V8.101C54.949 10.342 56.397 11.576 59.026 11.576C61.77 11.576 63.103 11.061 63.103 10.002C63.103 9.178 62.478 8.76 61.244 8.76C60.349 8.76 59.385 9.074 59.385 9.764V9.827C59.385 10.028 59.228 10.185 59.027 10.185C58.826 10.185 58.669 10.028 58.669 9.827V8.544C58.669 8.309 58.84 8.138 59.074 8.138C62.625 8.138 63.104 6.886 63.104 5.661C63.103 3.978 61.77 3.168 59.026 3.168ZM59.026 6.811C58.825 6.811 58.668 6.654 58.668 6.452V4.853C58.668 4.652 58.825 4.494 59.026 4.494C59.227 4.494 59.384 4.651 59.384 4.853V6.452C59.384 6.654 59.227 6.811 59.026 6.811ZM47.362 3.168H42.927C42.031 3.168 41.068 3.68 41.068 4.805V4.948C41.068 5.735 42.005 6.205 42.911 6.205C43.833 6.205 44.786 5.735 44.786 4.948V4.552C44.786 4.351 44.943 4.193 45.144 4.193C45.345 4.193 45.503 4.35 45.503 4.552V6.088C45.503 6.464 45.18 6.795 44.812 6.795C43.104 6.795 41.068 7.197 41.068 9.114V9.399C41.068 10.828 42.003 11.575 42.927 11.575H47.362C48.257 11.575 49.221 11.063 49.221 9.937V9.51C49.221 8.723 48.283 8.252 47.377 8.252C46.445 8.252 45.502 8.684 45.502 9.51V9.906C45.502 10.107 45.345 10.264 45.143 10.264C44.942 10.264 44.785 10.107 44.785 9.906V8.37C44.785 7.994 45.107 7.663 45.476 7.663C47.184 7.663 49.221 7.261 49.221 5.344C49.222 3.916 48.286 3.168 47.362 3.168ZM38.204 3.168H33.769C32.873 3.168 31.91 3.68 31.91 4.805V4.948C31.91 5.735 32.848 6.205 33.754 6.205C34.676 6.205 35.629 5.735 35.629 4.948V4.552C35.629 4.351 35.786 4.193 35.987 4.193C36.188 4.193 36.345 4.35 36.345 4.552V6.088C36.345 6.464 36.022 6.795 35.654 6.795C33.946 6.795 31.91 7.197 31.91 9.114V9.399C31.91 10.828 32.845 11.575 33.769 11.575H38.204C39.1 11.575 40.063 11.063 40.063 9.937V9.51C40.063 8.723 39.125 8.252 38.219 8.252C37.287 8.252 36.344 8.684 36.344 9.51V9.906C36.344 10.107 36.187 10.264 35.986 10.264C35.785 10.264 35.628 10.107 35.628 9.906V8.37C35.628 7.994 35.951 7.663 36.319 7.663C38.027 7.663 40.063 7.261 40.063 5.344C40.064 3.916 39.129 3.168 38.204 3.168ZM29.062 3.168C28.16 3.168 27.187 3.879 27.187 5.027V9.098C27.187 9.299 27.03 9.456 26.828 9.456C26.627 9.456 26.47 9.299 26.47 9.098V5.027C26.47 3.879 25.513 3.168 24.626 3.168C23.724 3.168 22.751 3.879 22.751 5.027V9.098C22.751 9.299 22.594 9.456 22.392 9.456C22.191 9.456 22.034 9.299 22.034 9.098V5.027C22.034 3.879 21.069 3.168 20.174 3.168C19.28 3.168 18.315 3.879 18.315 5.027V9.716C18.315 10.724 19.166 11.575 20.174 11.575H26.827C28.999 11.575 30.904 9.677 30.904 7.514V5.027C30.906 3.879 29.948 3.168 29.062 3.168ZM13.235 3.168C10.491 3.168 9.158 3.683 9.158 4.742C9.158 5.566 9.783 5.984 11.017 5.984C11.913 5.984 12.876 5.67 12.876 4.98V4.917C12.876 4.716 13.033 4.559 13.234 4.559C13.435 4.559 13.592 4.716 13.592 4.917V6.2C13.592 6.435 13.421 6.606 13.186 6.606C11.193 6.606 9.156 6.9 9.156 9.083C9.156 11.28 11.217 11.576 13.233 11.576H15.451C16.345 11.576 17.31 10.865 17.31 9.717V6.643C17.312 4.402 15.864 3.168 13.235 3.168ZM13.235 10.248C13.034 10.248 12.877 10.091 12.877 9.89V8.29C12.877 8.089 13.034 7.932 13.235 7.932C13.436 7.932 13.593 8.089 13.593 8.29V9.89C13.593 10.091 13.436 10.248 13.235 10.248ZM4.077 3.168H1.859C0.965 3.168 0 3.879 0 5.027V12.884C0 14.032 0.973 14.743 1.875 14.743C2.761 14.743 3.719 14.032 3.719 12.884V11.981C3.719 11.746 3.89 11.575 4.125 11.575C6.131 11.575 8.155 10.564 8.155 8.306V6.437C8.154 4.179 6.106 3.168 4.077 3.168ZM4.077 10.248C3.876 10.248 3.719 10.091 3.719 9.89V4.853C3.719 4.652 3.876 4.494 4.077 4.494C4.278 4.494 4.435 4.651 4.435 4.853V9.89C4.435 10.091 4.278 10.248 4.077 10.248Z" fill="#030404"/>
</svg>
