<?xml version="1.0" encoding="utf-8"?>
<!-- Generator: Adobe Illustrator 25.2.1, SVG Export Plug-In . SVG Version: 6.00 Build 0)  -->
<svg version="1.1" id="Layer_1" xmlns="http://www.w3.org/2000/svg" xmlns:xlink="http://www.w3.org/1999/xlink" x="0px" y="0px"
	 viewBox="0 0 478 308" enable-background="new 0 0 478 308" xml:space="preserve">
<path fill="none" stroke="#000000" stroke-width="2" stroke-linejoin="round" stroke-miterlimit="10" d="M302.967,105.414
	c0,0,2.99,8.787,8.571,14.431c5.147,5.206,7.001,5.976,7.001,5.976"/>
<path fill="none" stroke="#000000" stroke-width="2" stroke-linejoin="round" stroke-miterlimit="10" d="M245.88,81.605
	c0,0,0.889,4.574,3.287,8.067c1.153,1.681,2.979,3.536,2.979,3.536"/>
<path fill="none" stroke="#000000" stroke-width="2" stroke-linejoin="round" stroke-miterlimit="10" d="M212.155,78.348
	c0,0-1.798,5.41-5.244,10.492c-3.447,5.082-6.735,7.001-6.735,7.001"/>
<path fill="none" stroke="#000000" stroke-width="2" stroke-linejoin="round" stroke-miterlimit="10" d="M4.196,169.78L204.462,307
	l234.139-119.688V95.299L230.423,24.167L1.354,79.103L4.196,169.78z"/>
<path fill="none" stroke="#000000" stroke-width="2" stroke-linejoin="round" stroke-miterlimit="10" d="M1.354,79.103
	l203.783,109.558l233.464-93.361"/>
<path fill="none" stroke="#000000" stroke-width="2" stroke-linejoin="round" stroke-miterlimit="10" d="M205.136,188.661V307"/>
<path fill="none" stroke="#000000" stroke-width="2" stroke-linejoin="round" stroke-miterlimit="10" d="M86.83,93.096
	c20.295-0.623,36.58-6.595,36.373-13.337c-0.207-6.742-16.828-11.703-37.123-11.08c-20.295,0.623-36.58,6.595-36.373,13.337
	C49.915,88.758,66.535,93.719,86.83,93.096z"/>
<path fill="none" stroke="#000000" stroke-width="2" stroke-linejoin="round" stroke-miterlimit="10" d="M50.196,83.878
	c2.845-5.825,17.768-10.644,35.886-11.2c18.378-0.564,33.742,3.45,36.636,9.22"/>
<path fill="none" stroke="#000000" stroke-width="2" stroke-linejoin="round" stroke-miterlimit="10" d="M162.017,72.626
	c18.825,0,34.087-4.666,34.087-10.422c0-5.756-15.262-10.422-34.087-10.422c-18.826,0-34.088,4.666-34.088,10.422
	C127.929,67.96,143.191,72.626,162.017,72.626z"/>
<path fill="none" stroke="#000000" stroke-width="2" stroke-linejoin="round" stroke-miterlimit="10" d="M128.484,64.086
	c2.9-4.857,16.81-8.539,33.533-8.539c16.472,0,30.215,3.573,33.394,8.322"/>
<path fill="none" stroke="#000000" stroke-width="2" stroke-linejoin="round" stroke-miterlimit="10" d="M258.155,47.132
	c0.165-5.187-13.531-9.833-30.591-10.375c-17.06-0.543-31.023,3.222-31.188,8.41c-0.165,5.187,13.531,9.833,30.591,10.375
	C244.027,56.085,257.99,52.32,258.155,47.132z"/>
<path fill="none" stroke="#000000" stroke-width="2" stroke-linejoin="round" stroke-miterlimit="10" d="M196.869,46.967
	c2.645-4.343,15.428-7.305,30.688-6.82c14.928,0.474,27.28,4.09,30.024,8.461"/>
<path fill="none" stroke="#000000" stroke-width="2" stroke-linejoin="round" stroke-miterlimit="10" d="M209.179,53.252
	c0,0-0.783-2.934-4.492-5.39c-3.206-2.122-6.855-2.039-6.855-2.039"/>
<path fill="none" stroke="#000000" stroke-width="2" stroke-linejoin="round" stroke-miterlimit="10" d="M171.968,72.174
	c0,0-0.485-2.909,2.678-9.004c2.102-4.052,4.291-6.251,4.291-6.251"/>
<path fill="none" stroke="#000000" stroke-width="2" stroke-linejoin="round" stroke-miterlimit="10" d="M150.074,71.967
	c0,0-1.051-4.053-5.624-7.528c-5.619-4.27-12.109-3.602-12.109-3.602"/>
<path fill="none" stroke="#000000" stroke-width="2" stroke-linejoin="round" stroke-miterlimit="10" d="M104.645,91.013
	c0,0-0.164-2.052,1.932-7.655c1.91-5.106,4.543-8.204,4.543-8.204"/>
<path fill="none" stroke="#000000" stroke-width="2" stroke-linejoin="round" stroke-miterlimit="10" d="M82.188,93.144
	c0,0-2.252-7.64-8.54-11.359c-7.979-4.72-16.965-3.248-16.965-3.248"/>
<path fill="none" stroke="#000000" stroke-width="2" stroke-linejoin="round" stroke-miterlimit="10" d="M144.705,122.923
	c21.874-0.672,39.411-7.625,39.168-15.53c-0.243-7.905-18.173-13.769-40.047-13.097c-21.875,0.672-39.411,7.625-39.168,15.53
	C104.9,117.731,122.83,123.595,144.705,122.923z"/>
<path fill="none" stroke="#000000" stroke-width="2" stroke-linejoin="round" stroke-miterlimit="10" d="M105.12,111.85
	c2.895-6.881,19.05-12.558,38.709-13.161c19.964-0.613,36.641,4.217,39.589,11.074"/>
<path fill="none" stroke="#000000" stroke-width="2" stroke-linejoin="round" stroke-miterlimit="10" d="M150.074,98.674
	c0,0-3.204,11.35-13.454,17.275c-10.249,5.925-17.886,4.298-17.886,4.298"/>
<path fill="none" stroke="#000000" stroke-width="2" stroke-linejoin="round" stroke-miterlimit="10" d="M257.366,86.787
	c0.119-6.887-15.84-12.746-35.644-13.087c-19.804-0.341-35.955,4.966-36.073,11.853c-0.119,6.887,15.84,12.746,35.644,13.087
	C241.097,98.981,257.248,93.674,257.366,86.787z"/>
<path fill="none" stroke="#000000" stroke-width="2" stroke-linejoin="round" stroke-miterlimit="10" d="M186.159,87.776
	c2.916-5.862,17.759-10.115,35.552-9.809c17.642,0.303,32.233,4.986,35.124,10.873"/>
<path fill="none" stroke="#000000" stroke-width="2" stroke-linejoin="round" stroke-miterlimit="10" d="M321.381,68.129
	c0.191-6.012-14.678-11.363-33.212-11.953c-18.534-0.59-33.714,3.806-33.905,9.818c-0.191,6.012,14.678,11.363,33.212,11.953
	C306.01,78.536,321.19,74.14,321.381,68.129z"/>
<path fill="none" stroke="#000000" stroke-width="2" stroke-linejoin="round" stroke-miterlimit="10" d="M254.844,68.165
	c2.971-5.002,16.814-8.429,33.316-7.905c16.218,0.516,29.629,4.677,32.601,9.737"/>
<path fill="none" stroke="#000000" stroke-width="2" stroke-linejoin="round" stroke-miterlimit="10" d="M283.537,77.746
	c0.005-3.304-2.093-9.447-3.366-12.145c-1.273-2.697-2.922-5.101-2.922-5.101"/>
<path fill="none" stroke="#000000" stroke-width="2" stroke-linejoin="round" stroke-miterlimit="10" d="M304.374,77.01
	c0,0,0.895-3.392,5.391-6.389c4.496-2.997,8.611-3.115,8.611-3.115"/>
<path fill="none" stroke="#000000" stroke-width="2" stroke-linejoin="round" stroke-miterlimit="10" d="M395.254,93.538
	c0.51-6.85-15.769-13.646-36.362-15.18c-20.592-1.534-37.699,2.774-38.21,9.624c-0.51,6.85,15.77,13.646,36.362,15.181
	C377.637,104.696,394.744,100.387,395.254,93.538z"/>
<path fill="none" stroke="#000000" stroke-width="2" stroke-linejoin="round" stroke-miterlimit="10" d="M321.228,90.481
	c3.13-5.772,18.958-9.198,37.661-7.805c18.019,1.342,32.736,6.713,35.792,12.624"/>
<path fill="none" stroke="#000000" stroke-width="2" stroke-linejoin="round" stroke-miterlimit="10" d="M367.529,103.432
	c0,0,0.563-4.003,7.306-9.735c6.743-5.732,14.16-3.484,14.16-3.484"/>
<path fill="none" stroke="#000000" stroke-width="2" stroke-linejoin="round" stroke-miterlimit="10" d="M345.374,101.65
	c0,0,0.334-4.154-1.444-10.2c-1.686-5.731-3.693-8.517-3.693-8.517"/>
<path fill="none" stroke="#000000" stroke-width="2" stroke-linejoin="round" stroke-miterlimit="10" d="M330.804,115.993
	c0.364-7.994-17.097-15.284-39.001-16.281c-21.904-0.998-39.956,4.674-40.32,12.668c-0.364,7.995,17.097,15.284,39.001,16.282
	C312.388,129.659,330.44,123.987,330.804,115.993z"/>
<path fill="none" stroke="#000000" stroke-width="2" stroke-linejoin="round" stroke-miterlimit="10" d="M251.982,114.966
	c3.063-6.892,19.841-11.533,39.826-10.623c19.165,0.874,34.929,6.564,38.327,13.328"/>
<path fill="none" stroke="#000000" stroke-width="2" stroke-linejoin="round" stroke-miterlimit="10" d="M256.263,142.015
	c0.166-9.646-18.922-17.796-42.634-18.203c-23.712-0.408-43.069,7.08-43.235,16.726c-0.166,9.645,18.922,17.795,42.634,18.203
	S256.098,151.66,256.263,142.015z"/>
<path fill="none" stroke="#000000" stroke-width="2" stroke-linejoin="round" stroke-miterlimit="10" d="M170.731,142.909
	c2.713-8.605,20.933-14.996,42.885-14.619c21.745,0.374,39.602,7.259,42.286,15.837"/>
<path fill="none" stroke="#000000" stroke-width="2" stroke-linejoin="round" stroke-miterlimit="10" d="M43.815,179.429
	c8.723-2.602,11.023-20.706,5.137-40.436c-5.886-19.73-17.73-33.615-26.453-31.013c-8.723,2.603-11.023,20.707-5.137,40.437
	C23.249,168.147,35.092,182.032,43.815,179.429z"/>
<path fill="none" stroke="#000000" stroke-width="2" stroke-linejoin="round" stroke-miterlimit="10" d="M45.537,178.66
	c-8.333-0.517-18.464-13.543-23.764-31.309c-5.475-18.354-3.866-35.301,3.408-39.67"/>
<path fill="none" stroke="#000000" stroke-width="2" stroke-linejoin="round" stroke-miterlimit="10" d="M28.12,108.344
	c-2.234,5.358,0.032,19.898,5.031,25.886c5.504,6.593,15.361,9.472,16.926,8.94"/>
<path fill="none" stroke="#000000" stroke-width="2" stroke-linejoin="round" stroke-miterlimit="10" d="M72.189,147.323
	l16.006-4.897"/>
<path fill="none" stroke="#000000" stroke-width="2" stroke-linejoin="round" stroke-miterlimit="10" d="M27.259,161.072
	l24.621-7.534"/>
<path fill="none" stroke="#000000" stroke-width="2" stroke-linejoin="round" stroke-miterlimit="10" d="M101.671,215.082
	c10.138-3.445,12.619-23.12,5.541-43.944c-7.077-20.824-21.034-34.912-31.172-31.466c-10.138,3.445-12.619,23.12-5.542,43.944
	C77.576,204.44,91.533,218.528,101.671,215.082z"/>
<path fill="none" stroke="#000000" stroke-width="2" stroke-linejoin="round" stroke-miterlimit="10" d="M103.666,214.116
	c-9.913,1.215-22.593-12.388-29.228-31.911c-6.573-19.34-4.9-37.688,3.493-42.966"/>
<path fill="none" stroke="#000000" stroke-width="2" stroke-linejoin="round" stroke-miterlimit="10" d="M169.704,259.075
	c11.931-4.541,14.584-26.664,5.927-49.412c-8.658-22.749-25.349-37.509-37.28-32.968c-11.931,4.541-14.584,26.663-5.926,49.412
	C141.082,248.855,157.773,263.616,169.704,259.075z"/>
<path fill="none" stroke="#000000" stroke-width="2" stroke-linejoin="round" stroke-miterlimit="10" d="M171.317,258.327
	c-11.66,1.785-26.675-12.468-34.732-33.638c-8.254-21.685-6.228-42.802,4.314-48.662"/>
<path fill="none" stroke="#000000" stroke-width="2" stroke-linejoin="round" stroke-miterlimit="10" d="M287.711,234.203
	c11.014-21.821,8.971-45.049-4.563-51.881c-13.535-6.831-33.435,5.32-44.45,27.141c-11.015,21.822-8.972,45.05,4.563,51.881
	C256.795,268.176,276.696,256.024,287.711,234.203z"/>
<path fill="none" stroke="#000000" stroke-width="2" stroke-linejoin="round" stroke-miterlimit="10" d="M280.127,181.127
	c12.188,7.74,13.68,30.041,3.081,51.04c-10.219,20.245-28.087,32.167-41.424,28.329"/>
<path fill="none" stroke="#000000" stroke-width="2" stroke-linejoin="round" stroke-miterlimit="10" d="M361.111,196.225
	c8.775-20.832,6.367-41.73-5.379-46.677c-11.745-4.948-28.38,7.929-37.155,28.76c-8.775,20.832-6.367,41.73,5.379,46.677
	C335.702,229.933,352.337,217.056,361.111,196.225z"/>
<path fill="none" stroke="#000000" stroke-width="2" stroke-linejoin="round" stroke-miterlimit="10" d="M355.209,149.36
	c8.521,7.407,9.534,25.933,1.751,44.407c-8.644,20.518-24.914,33.318-36.625,28.968"/>
<path fill="none" stroke="#000000" stroke-width="2" stroke-linejoin="round" stroke-miterlimit="10" d="M424.06,166.044
	c7.686-19.495,5.471-38.628-4.948-42.736c-10.418-4.108-25.095,8.365-32.782,27.86c-7.686,19.494-5.471,38.627,4.948,42.735
	C401.697,198.011,416.374,185.538,424.06,166.044z"/>
<path fill="none" stroke="#000000" stroke-width="2" stroke-linejoin="round" stroke-miterlimit="10" d="M420.794,124.146
	c6.021,7.444,6.353,23.138,0.07,39.072c-7.687,19.494-22.364,31.967-32.783,27.859c-0.582-0.23-1.139-0.506-1.669-0.827"/>
<path fill="none" stroke="#000000" stroke-width="2" stroke-linejoin="round" stroke-miterlimit="10" d="M418.088,122.968
	c2.486,3.77,0.913,22.425-9.314,29.281c-10.227,6.855-22.716,0-22.716,0"/>
<path fill="none" stroke="#000000" stroke-width="2" stroke-linejoin="round" stroke-miterlimit="10" d="M297.85,128.761
	l-42.965-17.33"/>
<path fill="none" stroke="#000000" stroke-width="2" stroke-linejoin="round" stroke-miterlimit="10" d="M414.374,175.761
	l-31.537-12.72"/>
<path fill="none" stroke="#000000" stroke-width="2" stroke-linejoin="round" stroke-miterlimit="10" d="M230.423,40.334v15.259"/>
<path fill="none" stroke="#000000" stroke-width="2" stroke-linejoin="round" stroke-miterlimit="10" d="M230.423,78.348v20.048"/>
<path fill="none" stroke="#000000" stroke-width="2" stroke-linejoin="round" stroke-miterlimit="10" d="M382.838,163.041h-0.001"/>
<path d="M230.285,6.262c0.288-0.471,0.141-1.087-0.33-1.375l-7.673-4.704c-0.471-0.289-1.086-0.141-1.375,0.33
	c-0.289,0.471-0.141,1.087,0.33,1.375l6.82,4.182l-4.182,6.82c-0.288,0.471-0.141,1.087,0.33,1.375
	c0.471,0.289,1.087,0.141,1.375-0.33L230.285,6.262z M1.168,59.756c-0.289,0.471-0.141,1.086,0.33,1.375l7.673,4.704
	c0.471,0.289,1.087,0.141,1.375-0.33c0.289-0.471,0.141-1.087-0.33-1.375l-6.82-4.182l4.182-6.82
	c0.289-0.471,0.141-1.087-0.33-1.375c-0.471-0.289-1.087-0.141-1.375,0.33L1.168,59.756z M229.199,4.767L1.788,59.306l0.466,1.945
	L229.665,6.712L229.199,4.767z"/>
<path d="M455.46,182.062c0.391,0.391,1.024,0.391,1.414,0l6.364-6.364c0.391-0.39,0.391-1.024,0-1.414
	c-0.39-0.391-1.023-0.391-1.414,0l-5.657,5.657l-5.657-5.657c-0.39-0.391-1.023-0.391-1.414,0c-0.39,0.39-0.39,1.024,0,1.414
	L455.46,182.062z M456.875,90.339c-0.391-0.391-1.024-0.391-1.414,0l-6.364,6.364c-0.391,0.39-0.391,1.024,0,1.414
	c0.39,0.391,1.023,0.391,1.414,0l5.657-5.657l5.657,5.657c0.39,0.391,1.023,0.391,1.414,0c0.39-0.39,0.39-1.024,0-1.414
	L456.875,90.339z M457.167,181.355V91.046h-2v90.309H457.167z"/>
<path d="M469.644,136.233c0-1.428,0.868-1.918,1.89-1.918c1.19-0.014,1.75,0.504,1.75,2.184c0,1.736-0.546,2.38-1.82,2.38
	c-0.77,0-1.33-0.21-1.82-0.504V136.233z M469.658,133.573c0.028-0.462,0.042-0.826,0.042-1.358c0-0.952,0.014-1.568,0.014-2.282
	h-2.646c0.014,1.302,0.028,3.234,0.028,5.684c0,2.17-0.014,3.752-0.042,5.152h2.646c-0.014-0.238-0.014-0.448-0.014-0.672
	c0-0.14,0-0.294-0.014-0.448h0.056c0.476,0.644,1.372,1.246,2.87,1.246c2.002,0,3.22-1.232,3.22-4.41c0-3.206-1.078-4.34-3.206-4.34
	c-1.372,0-2.366,0.49-2.87,1.456L469.658,133.573z"/>
<path d="M113.073,17.82c-0.924,0-1.246-0.28-1.246-0.868c0-0.644,0.448-0.938,1.484-0.938c0.546,0,1.064,0.014,1.554,0.084
	C114.851,17.162,114.151,17.82,113.073,17.82z M114.935,18.1c-0.014,0.28-0.028,0.574-0.028,0.812c0,0.532,0.098,0.588,0.56,0.588
	h2.156c-0.14-0.378-0.21-1.54-0.21-2.506c0-1.008,0.042-1.778,0.042-2.842c0-1.988-1.092-3.29-3.99-3.29
	c-2.87,0-4.018,1.512-3.892,3.528c0.35-0.056,0.854-0.056,1.358-0.056c0.392,0,0.798,0,1.106,0.014
	c-0.042-0.966,0.406-1.372,1.47-1.372c1.008,0,1.386,0.448,1.386,1.246c0,0.224,0,0.462-0.014,0.7
	c-0.49-0.07-1.19-0.098-1.904-0.098c-2.45,0-3.654,0.742-3.654,2.492c0,1.708,0.98,2.324,2.786,2.324
	c1.442,0,2.394-0.504,2.758-1.554L114.935,18.1z"/>
<g>
	<path d="M255.193,232.254l-12.735,25.231l-2.059-6.256c-0.173-0.524-0.738-0.81-1.263-0.637c-0.525,0.173-0.81,0.738-0.637,1.263
		l2.813,8.548c0.173,0.525,0.738,0.81,1.263,0.638l8.549-2.814c0.524-0.173,0.81-0.738,0.637-1.263
		c-0.173-0.524-0.738-0.809-1.262-0.637l-6.256,2.059l12.728-25.218L255.193,232.254z"/>
	<path d="M281.359,184.852l2.059,6.256c0.173,0.525,0.738,0.81,1.262,0.637c0.525-0.172,0.81-0.738,0.638-1.262l-2.814-8.549
		c-0.173-0.525-0.738-0.81-1.262-0.637l-8.549,2.813c-0.525,0.173-0.81,0.738-0.638,1.263c0.173,0.524,0.738,0.81,1.263,0.637
		l6.255-2.059l-11.152,22.096l1.779,0.915L281.359,184.852z"/>
</g>
<path d="M267.256,220.125c-0.336,0.028-0.798,0.042-1.246,0.042c-0.42,0-0.84,0-1.162-0.042v0.084
	c-0.014,0.728-0.462,1.148-1.736,1.148c-1.414,0-1.96-0.504-1.96-2.24c0-1.652,0.56-2.156,1.946-2.156
	c1.344,0,1.736,0.308,1.75,1.232v0.056c0.28-0.014,0.7-0.028,1.148-0.028c0.462,0,0.924,0.014,1.218,0.028v-0.14
	c0-2.492-1.554-3.374-4.13-3.374c-2.856,0-4.41,1.498-4.41,4.41s1.568,4.438,4.354,4.438c3.318,0,4.228-1.428,4.228-3.374V220.125z"
	/>
</svg>
